# xmcd CD database file
#
# Track frame offsets:
#	150
#	21022
#	45347
#	66120
#
# Disc length: 1203 seconds
#
# Revision: 0
# Processed by: cddbd v1.5PL3 Copyright (c) Steve Scherf et al.
# Submitted via: CDex 1.50beta8
#
DISCID=2704b104
DTITLE=水野愛日 - パレード
DYEAR=1998
DGENRE=J-pop
TTITLE0=パレード
TTITLE1=抱きしめたい! -Ethnic and Hip Hop Ver.-
TTITLE2=パレード(Music Track)
TTITLE3=抱きしめたい! -Ethnic and Hip Hop Ver.-(Music Track)
EXTD=YEAR: 1998
EXTT0=
EXTT1=
EXTT2=
EXTT3=
PLAYORDER=
